<svg width="256" height="256" viewBox="0 0 256 256" fill="none" xmlns="http://www.w3.org/2000/svg">
<circle cx="128" cy="128" r="128" fill="#475AC6"/>
<path d="M150 90.037C150 102.208 140.15 112.074 128 112.074C115.85 112.074 106 102.208 106 90.037C106 77.8663 115.85 68 128 68C140.15 68 150 77.8663 150 90.037ZM115.779 90.037C115.779 96.7979 121.251 102.279 128 102.279C134.749 102.279 140.221 96.7979 140.221 90.037C140.221 83.2762 134.749 77.7955 128 77.7955C121.251 77.7955 115.779 83.2762 115.779 90.037Z" fill="white"/>
<path d="M110.4 121.889C110.4 121.337 110.848 120.889 111.4 120.889H145.1C145.376 120.889 145.6 121.113 145.6 121.389V187C126.159 187 110.4 171.24 110.4 151.8V121.889Z" fill="white"/>
</svg>
